<!DOCTYPE svg PUBLIC "-//W3C//DTD SVG 1.1//EN" "http://www.w3.org/Graphics/SVG/1.1/DTD/svg11.dtd">

<!-- Uploaded to: SVG Repo, www.svgrepo.com, Transformed by: SVG Repo Mixer Tools -->
<svg width="87px" height="87px" viewBox="-7.2 -7.2 62.40 62.40" enable-background="new 0 0 48 48" id="Layer_3" version="1.1" xml:space="preserve" xmlns="http://www.w3.org/2000/svg" xmlns:xlink="http://www.w3.org/1999/xlink" fill="#0db760" stroke="#0db760" stroke-width="2.448">

<g id="SVGRepo_bgCarrier" stroke-width="0"/>

<g id="SVGRepo_tracerCarrier" stroke-linecap="round" stroke-linejoin="round"/>

<g id="SVGRepo_iconCarrier"> <g> <polygon fill="#" points="30.367,21.922 16.96,8.113 21.334,22.747 17.885,26.021 31.04,39.887 26.867,25.322 "/> <path d="M24,0C10.745,0,0,10.745,0,24s10.745,24,24,24s24-10.745,24-24S37.255,0,24,0z M24,44 c-4.756,0-9.119-1.667-12.552-4.439l7.053-7.053l-2.754-2.902l-7.149,7.149C5.727,33.293,4,28.849,4,24C4,12.954,12.954,4,24,4 c4.849,0,9.293,1.727,12.755,4.597l-6.966,6.966l2.781,2.875l6.99-6.99C42.333,14.881,44,19.244,44,24C44,35.046,35.046,44,24,44z" fill="#"/> </g> </g>

</svg>